<svg xmlns="http://www.w3.org/2000/svg" viewBox="0 0 800 1000" fill="none">
  <defs>
    <linearGradient id="bg" x1="0" y1="0" x2="0" y2="1">
      <stop offset="0" stop-color="#171B1E"/><stop offset="1" stop-color="#0D0F11"/>
    </linearGradient>
    <radialGradient id="glow" cx="50%" cy="42%" r="55%">
      <stop offset="0" stop-color="#2FC2B4" stop-opacity="0.22"/>
      <stop offset="1" stop-color="#2FC2B4" stop-opacity="0"/>
    </radialGradient>
    <linearGradient id="wood" x1="0" y1="0" x2="1" y2="1">
      <stop offset="0" stop-color="#C77B33"/><stop offset="0.5" stop-color="#8A4614"/><stop offset="1" stop-color="#5F3015"/>
    </linearGradient>
    <linearGradient id="firooze" x1="0" y1="0" x2="1" y2="1">
      <stop offset="0" stop-color="#5CD9CB"/><stop offset="1" stop-color="#17A497"/>
    </linearGradient>
  </defs>
  <rect width="800" height="1000" fill="url(#bg)"/>
  <rect width="800" height="1000" fill="url(#glow)"/>
  <g transform="translate(400 500)" stroke="#3a2a1c" stroke-width="1.2" opacity="0.5">
    <rect x="-150" y="-150" width="300" height="300" fill="none"/>
    <rect x="-150" y="-150" width="300" height="300" fill="none" transform="rotate(45)"/>
    <circle r="210" fill="none"/>
  </g>
  <g transform="translate(400 500)">
  <rect x="-170" y="-230" width="340" height="460" rx="14" fill="url(#wood)" stroke="#C77B33" stroke-width="2"/>
  <rect x="-150" y="-210" width="300" height="420" rx="8" fill="#1D2226"/>
  <line x1="-150" y1="-210" x2="-150" y2="210" stroke="#E89B2E" stroke-width="6"/>
  <g stroke="url(#firooze)" stroke-width="3" opacity="0.6"><line x1="-110" y1="-120" x2="110" y2="-120"/><line x1="-110" y1="-98" x2="110" y2="-98"/><line x1="-110" y1="-76" x2="110" y2="-76"/><line x1="-110" y1="-54" x2="110" y2="-54"/><line x1="-110" y1="-32" x2="110" y2="-32"/></g>
  <circle cx="-40" cy="40" r="18" fill="url(#firooze)"/><rect x="-25" y="-30" width="6" height="72" fill="url(#firooze)"/>
  <circle cx="70" cy="70" r="18" fill="#E89B2E"/><rect x="85" y="0" width="6" height="72" fill="#E89B2E"/>
  <path d="M-25 -30 L91 -46" stroke="url(#firooze)" stroke-width="6"/>
</g>
  <g opacity="0.55" transform="translate(400 930)" text-anchor="middle" font-family="Vazirmatn, sans-serif">
    <circle cx="-70" cy="-5" r="3" fill="#E89B2E"/>
    <text x="0" y="0" fill="#8E9AA1" font-size="26" font-weight="700">دکتر ساز</text>
  </g>
</svg>