<svg xmlns="http://www.w3.org/2000/svg" viewBox="0 0 800 1000" fill="none">
  <defs>
    <linearGradient id="bg" x1="0" y1="0" x2="0" y2="1">
      <stop offset="0" stop-color="#171B1E"/><stop offset="1" stop-color="#0D0F11"/>
    </linearGradient>
    <radialGradient id="glow" cx="50%" cy="42%" r="55%">
      <stop offset="0" stop-color="#2FC2B4" stop-opacity="0.22"/>
      <stop offset="1" stop-color="#2FC2B4" stop-opacity="0"/>
    </radialGradient>
    <linearGradient id="wood" x1="0" y1="0" x2="1" y2="1">
      <stop offset="0" stop-color="#C77B33"/><stop offset="0.5" stop-color="#8A4614"/><stop offset="1" stop-color="#5F3015"/>
    </linearGradient>
    <linearGradient id="firooze" x1="0" y1="0" x2="1" y2="1">
      <stop offset="0" stop-color="#5CD9CB"/><stop offset="1" stop-color="#17A497"/>
    </linearGradient>
  </defs>
  <rect width="800" height="1000" fill="url(#bg)"/>
  <rect width="800" height="1000" fill="url(#glow)"/>
  <g transform="translate(400 500)" stroke="#3a2a1c" stroke-width="1.2" opacity="0.5">
    <rect x="-150" y="-150" width="300" height="300" fill="none"/>
    <rect x="-150" y="-150" width="300" height="300" fill="none" transform="rotate(45)"/>
    <circle r="210" fill="none"/>
  </g>
  <g transform="translate(400 490)">
  <circle r="250" fill="none" stroke="url(#wood)" stroke-width="30"/>
  <circle r="228" fill="#1D2226"/>
  <circle r="228" fill="#171B1E"/>
  <circle r="250" fill="none" stroke="#C77B33" stroke-width="2" opacity="0.5"/>
  <circle r="234" fill="none" stroke="#C77B33" stroke-width="1.5" opacity="0.4"/>
  <g fill="none" stroke="url(#firooze)" stroke-width="2" opacity="0.5">
    <circle r="150"/><circle r="90" opacity="0.6"/>
  </g>
  <circle cx="212" cy="0" r="6" fill="#E89B2E" opacity="0.8"/><circle cx="205" cy="55" r="6" fill="#E89B2E" opacity="0.8"/><circle cx="184" cy="106" r="6" fill="#E89B2E" opacity="0.8"/><circle cx="150" cy="150" r="6" fill="#E89B2E" opacity="0.8"/><circle cx="106" cy="184" r="6" fill="#E89B2E" opacity="0.8"/><circle cx="55" cy="205" r="6" fill="#E89B2E" opacity="0.8"/><circle cx="0" cy="212" r="6" fill="#E89B2E" opacity="0.8"/><circle cx="-55" cy="205" r="6" fill="#E89B2E" opacity="0.8"/><circle cx="-106" cy="184" r="6" fill="#E89B2E" opacity="0.8"/><circle cx="-150" cy="150" r="6" fill="#E89B2E" opacity="0.8"/><circle cx="-184" cy="106" r="6" fill="#E89B2E" opacity="0.8"/><circle cx="-205" cy="55" r="6" fill="#E89B2E" opacity="0.8"/><circle cx="-212" cy="0" r="6" fill="#E89B2E" opacity="0.8"/><circle cx="-205" cy="-55" r="6" fill="#E89B2E" opacity="0.8"/><circle cx="-184" cy="-106" r="6" fill="#E89B2E" opacity="0.8"/><circle cx="-150" cy="-150" r="6" fill="#E89B2E" opacity="0.8"/><circle cx="-106" cy="-184" r="6" fill="#E89B2E" opacity="0.8"/><circle cx="-55" cy="-205" r="6" fill="#E89B2E" opacity="0.8"/><circle cx="-0" cy="-212" r="6" fill="#E89B2E" opacity="0.8"/><circle cx="55" cy="-205" r="6" fill="#E89B2E" opacity="0.8"/><circle cx="106" cy="-184" r="6" fill="#E89B2E" opacity="0.8"/><circle cx="150" cy="-150" r="6" fill="#E89B2E" opacity="0.8"/><circle cx="184" cy="-106" r="6" fill="#E89B2E" opacity="0.8"/><circle cx="205" cy="-55" r="6" fill="#E89B2E" opacity="0.8"/>
  <line x1="0" y1="0" x2="150" y2="0" stroke="url(#firooze)" stroke-width="1.5" opacity="0.3"/><line x1="0" y1="0" x2="106" y2="106" stroke="url(#firooze)" stroke-width="1.5" opacity="0.3"/><line x1="0" y1="0" x2="0" y2="150" stroke="url(#firooze)" stroke-width="1.5" opacity="0.3"/><line x1="0" y1="0" x2="-106" y2="106" stroke="url(#firooze)" stroke-width="1.5" opacity="0.3"/><line x1="0" y1="0" x2="-150" y2="0" stroke="url(#firooze)" stroke-width="1.5" opacity="0.3"/><line x1="0" y1="0" x2="-106" y2="-106" stroke="url(#firooze)" stroke-width="1.5" opacity="0.3"/><line x1="0" y1="0" x2="-0" y2="-150" stroke="url(#firooze)" stroke-width="1.5" opacity="0.3"/><line x1="0" y1="0" x2="106" y2="-106" stroke="url(#firooze)" stroke-width="1.5" opacity="0.3"/>
</g>
  <g opacity="0.55" transform="translate(400 930)" text-anchor="middle" font-family="Vazirmatn, sans-serif">
    <circle cx="-70" cy="-5" r="3" fill="#E89B2E"/>
    <text x="0" y="0" fill="#8E9AA1" font-size="26" font-weight="700">دکتر ساز</text>
  </g>
</svg>