<svg xmlns="http://www.w3.org/2000/svg" viewBox="0 0 800 1000" fill="none">
  <defs>
    <linearGradient id="bg" x1="0" y1="0" x2="0" y2="1">
      <stop offset="0" stop-color="#171B1E"/><stop offset="1" stop-color="#0D0F11"/>
    </linearGradient>
    <radialGradient id="glow" cx="50%" cy="42%" r="55%">
      <stop offset="0" stop-color="#2FC2B4" stop-opacity="0.22"/>
      <stop offset="1" stop-color="#2FC2B4" stop-opacity="0"/>
    </radialGradient>
    <linearGradient id="wood" x1="0" y1="0" x2="1" y2="1">
      <stop offset="0" stop-color="#C77B33"/><stop offset="0.5" stop-color="#8A4614"/><stop offset="1" stop-color="#5F3015"/>
    </linearGradient>
    <linearGradient id="firooze" x1="0" y1="0" x2="1" y2="1">
      <stop offset="0" stop-color="#5CD9CB"/><stop offset="1" stop-color="#17A497"/>
    </linearGradient>
  </defs>
  <rect width="800" height="1000" fill="url(#bg)"/>
  <rect width="800" height="1000" fill="url(#glow)"/>
  <g transform="translate(400 500)" stroke="#3a2a1c" stroke-width="1.2" opacity="0.5">
    <rect x="-150" y="-150" width="300" height="300" fill="none"/>
    <rect x="-150" y="-150" width="300" height="300" fill="none" transform="rotate(45)"/>
    <circle r="210" fill="none"/>
  </g>
  <g transform="translate(400 500)">
  <ellipse cx="0" cy="40" rx="250" ry="150" fill="url(#wood)" stroke="#C77B33" stroke-width="2"/>
  <ellipse cx="0" cy="20" rx="250" ry="140" fill="#252C31"/>
  <ellipse cx="0" cy="20" rx="250" ry="140" fill="url(#glow)"/>
  <ellipse cx="0" cy="20" rx="250" ry="140" fill="none" stroke="#C77B33" stroke-width="2"/>
  <ellipse cx="0" cy="20" rx="60" ry="34" fill="none" stroke="url(#firooze)" stroke-width="3"/>
  <ellipse cx="0" cy="-95" rx="54" ry="30" fill="none" stroke="url(#firooze)" stroke-width="2.5" opacity="0.75"/><ellipse cx="0" cy="-95" rx="21.6" ry="12" fill="#E89B2E" opacity="0.3"/><ellipse cx="-150" cy="10" rx="50" ry="28" fill="none" stroke="url(#firooze)" stroke-width="2.5" opacity="0.75"/><ellipse cx="-150" cy="10" rx="20" ry="11.200000000000001" fill="#E89B2E" opacity="0.3"/><ellipse cx="150" cy="10" rx="50" ry="28" fill="none" stroke="url(#firooze)" stroke-width="2.5" opacity="0.75"/><ellipse cx="150" cy="10" rx="20" ry="11.200000000000001" fill="#E89B2E" opacity="0.3"/><ellipse cx="-95" cy="90" rx="46" ry="26" fill="none" stroke="url(#firooze)" stroke-width="2.5" opacity="0.75"/><ellipse cx="-95" cy="90" rx="18.400000000000002" ry="10.4" fill="#E89B2E" opacity="0.3"/><ellipse cx="95" cy="90" rx="46" ry="26" fill="none" stroke="url(#firooze)" stroke-width="2.5" opacity="0.75"/><ellipse cx="95" cy="90" rx="18.400000000000002" ry="10.4" fill="#E89B2E" opacity="0.3"/><ellipse cx="-215" cy="25" rx="34" ry="20" fill="none" stroke="url(#firooze)" stroke-width="2.5" opacity="0.75"/><ellipse cx="-215" cy="25" rx="13.600000000000001" ry="8" fill="#E89B2E" opacity="0.3"/><ellipse cx="215" cy="25" rx="34" ry="20" fill="none" stroke="url(#firooze)" stroke-width="2.5" opacity="0.75"/><ellipse cx="215" cy="25" rx="13.600000000000001" ry="8" fill="#E89B2E" opacity="0.3"/><ellipse cx="0" cy="120" rx="40" ry="22" fill="none" stroke="url(#firooze)" stroke-width="2.5" opacity="0.75"/><ellipse cx="0" cy="120" rx="16" ry="8.8" fill="#E89B2E" opacity="0.3"/>
</g>
  <g opacity="0.55" transform="translate(400 930)" text-anchor="middle" font-family="Vazirmatn, sans-serif">
    <circle cx="-70" cy="-5" r="3" fill="#E89B2E"/>
    <text x="0" y="0" fill="#8E9AA1" font-size="26" font-weight="700">دکتر ساز</text>
  </g>
</svg>