<svg xmlns="http://www.w3.org/2000/svg" viewBox="0 0 800 1000" fill="none">
  <defs>
    <linearGradient id="bg" x1="0" y1="0" x2="0" y2="1">
      <stop offset="0" stop-color="#171B1E"/><stop offset="1" stop-color="#0D0F11"/>
    </linearGradient>
    <radialGradient id="glow" cx="50%" cy="42%" r="55%">
      <stop offset="0" stop-color="#2FC2B4" stop-opacity="0.22"/>
      <stop offset="1" stop-color="#2FC2B4" stop-opacity="0"/>
    </radialGradient>
    <linearGradient id="wood" x1="0" y1="0" x2="1" y2="1">
      <stop offset="0" stop-color="#C77B33"/><stop offset="0.5" stop-color="#8A4614"/><stop offset="1" stop-color="#5F3015"/>
    </linearGradient>
    <linearGradient id="firooze" x1="0" y1="0" x2="1" y2="1">
      <stop offset="0" stop-color="#5CD9CB"/><stop offset="1" stop-color="#17A497"/>
    </linearGradient>
  </defs>
  <rect width="800" height="1000" fill="url(#bg)"/>
  <rect width="800" height="1000" fill="url(#glow)"/>
  <g transform="translate(400 500)" stroke="#3a2a1c" stroke-width="1.2" opacity="0.5">
    <rect x="-150" y="-150" width="300" height="300" fill="none"/>
    <rect x="-150" y="-150" width="300" height="300" fill="none" transform="rotate(45)"/>
    <circle r="210" fill="none"/>
  </g>
  <g transform="translate(370 500)">
  <circle cx="0" cy="180" r="110" fill="url(#wood)" stroke="#C77B33" stroke-width="2"/>
  <ellipse cx="0" cy="180" rx="88" ry="88" fill="#E7C9A0" opacity="0.85"/>
  <ellipse cx="0" cy="180" rx="88" ry="88" fill="none" stroke="#C77B33" stroke-width="1.5"/>
  <rect x="-8" y="290" width="16" height="70" rx="6" fill="#F2E6CE"/>
  <rect x="-9" y="-280" width="18" height="360" rx="8" fill="url(#wood)" stroke="#C77B33" stroke-width="1.5"/>
  <path d="M-22 -295 L22 -295 L18 -360 L-18 -360 Z" fill="url(#wood)" stroke="#C77B33" stroke-width="1.5"/>
  <g fill="#F2E6CE"><circle cx="-30" cy="-312" r="7"/><circle cx="30" cy="-318" r="7"/><circle cx="-30" cy="-344" r="7"/><circle cx="30" cy="-350" r="7"/></g>
  <g stroke="#F2E6CE" stroke-width="1.3" opacity="0.8"><line x1="-6" y1="200" x2="-6" y2="-295"/><line x1="-2" y1="200" x2="-2" y2="-295"/><line x1="2" y1="200" x2="2" y2="-295"/><line x1="6" y1="200" x2="6" y2="-295"/></g>
  <rect x="-20" y="196" width="40" height="7" rx="3" fill="#F2E6CE"/>
  <g transform="rotate(24 150 200)"><rect x="120" y="20" width="14" height="360" rx="7" fill="url(#wood)"/><path d="M127 20 q60 180 0 360" fill="none" stroke="#F2E6CE" stroke-width="2" opacity="0.7"/></g>
</g>
  <g opacity="0.55" transform="translate(400 930)" text-anchor="middle" font-family="Vazirmatn, sans-serif">
    <circle cx="-70" cy="-5" r="3" fill="#E89B2E"/>
    <text x="0" y="0" fill="#8E9AA1" font-size="26" font-weight="700">دکتر ساز</text>
  </g>
</svg>