<svg xmlns="http://www.w3.org/2000/svg" viewBox="0 0 800 1000" fill="none">
  <defs>
    <linearGradient id="bg" x1="0" y1="0" x2="0" y2="1">
      <stop offset="0" stop-color="#171B1E"/><stop offset="1" stop-color="#0D0F11"/>
    </linearGradient>
    <radialGradient id="glow" cx="50%" cy="42%" r="55%">
      <stop offset="0" stop-color="#2FC2B4" stop-opacity="0.22"/>
      <stop offset="1" stop-color="#2FC2B4" stop-opacity="0"/>
    </radialGradient>
    <linearGradient id="wood" x1="0" y1="0" x2="1" y2="1">
      <stop offset="0" stop-color="#C77B33"/><stop offset="0.5" stop-color="#8A4614"/><stop offset="1" stop-color="#5F3015"/>
    </linearGradient>
    <linearGradient id="firooze" x1="0" y1="0" x2="1" y2="1">
      <stop offset="0" stop-color="#5CD9CB"/><stop offset="1" stop-color="#17A497"/>
    </linearGradient>
  </defs>
  <rect width="800" height="1000" fill="url(#bg)"/>
  <rect width="800" height="1000" fill="url(#glow)"/>
  <g transform="translate(400 500)" stroke="#3a2a1c" stroke-width="1.2" opacity="0.5">
    <rect x="-150" y="-150" width="300" height="300" fill="none"/>
    <rect x="-150" y="-150" width="300" height="300" fill="none" transform="rotate(45)"/>
    <circle r="210" fill="none"/>
  </g>
  <g transform="translate(400 500)">
  <path d="M-260 -120 L260 -120 L200 120 L-200 120 Z" fill="url(#wood)" stroke="#C77B33" stroke-width="2"/>
  <path d="M-234 -96 L234 -96 L182 96 L-182 96 Z" fill="#1D2226" opacity="0.5"/>
  <g stroke="#F2E6CE" stroke-width="1" opacity="0.55">
    <line x1="-234" y1="-96" x2="234" y2="-96"/><line x1="-230" y1="-81" x2="230" y2="-81"/><line x1="-226" y1="-66" x2="226" y2="-66"/><line x1="-222" y1="-51" x2="222" y2="-51"/><line x1="-218" y1="-36" x2="218" y2="-36"/><line x1="-214" y1="-21" x2="214" y2="-21"/><line x1="-210" y1="-6" x2="210" y2="-6"/><line x1="-206" y1="9" x2="206" y2="9"/><line x1="-202" y1="24" x2="202" y2="24"/><line x1="-198" y1="39" x2="198" y2="39"/><line x1="-194" y1="54" x2="194" y2="54"/><line x1="-190" y1="69" x2="190" y2="69"/><line x1="-186" y1="84" x2="186" y2="84"/>
  </g>
  <g fill="url(#firooze)"><rect x="-150" y="-96" width="6" height="192" rx="2" opacity="0.7"/><rect x="-112" y="-96" width="6" height="192" rx="2" opacity="0.7"/><rect x="-74" y="-96" width="6" height="192" rx="2" opacity="0.7"/><rect x="-36" y="-96" width="6" height="192" rx="2" opacity="0.7"/><rect x="2" y="-96" width="6" height="192" rx="2" opacity="0.7"/><rect x="40" y="-96" width="6" height="192" rx="2" opacity="0.7"/><rect x="78" y="-96" width="6" height="192" rx="2" opacity="0.7"/><rect x="116" y="-96" width="6" height="192" rx="2" opacity="0.7"/><rect x="154" y="-96" width="6" height="192" rx="2" opacity="0.7"/></g>
  <circle cx="-130" cy="0" r="26" fill="none" stroke="#E89B2E" stroke-width="2" opacity="0.6"/>
  <circle cx="130" cy="0" r="26" fill="none" stroke="#E89B2E" stroke-width="2" opacity="0.6"/>
  <g transform="translate(-230 170)"><rect x="0" y="0" width="90" height="7" rx="3" fill="#F2E6CE" transform="rotate(-12)"/><path d="M78 -14 q14 6 8 20" fill="none" stroke="#F2E6CE" stroke-width="6"/></g>
  <g transform="translate(150 175)"><rect x="0" y="0" width="90" height="7" rx="3" fill="#F2E6CE" transform="rotate(10)"/><path d="M82 16 q14 -4 10 -20" fill="none" stroke="#F2E6CE" stroke-width="6"/></g>
</g>
  <g opacity="0.55" transform="translate(400 930)" text-anchor="middle" font-family="Vazirmatn, sans-serif">
    <circle cx="-70" cy="-5" r="3" fill="#E89B2E"/>
    <text x="0" y="0" fill="#8E9AA1" font-size="26" font-weight="700">دکتر ساز</text>
  </g>
</svg>