<svg xmlns="http://www.w3.org/2000/svg" viewBox="0 0 800 1000" fill="none">
  <defs>
    <linearGradient id="bg" x1="0" y1="0" x2="0" y2="1">
      <stop offset="0" stop-color="#171B1E"/><stop offset="1" stop-color="#0D0F11"/>
    </linearGradient>
    <radialGradient id="glow" cx="50%" cy="42%" r="55%">
      <stop offset="0" stop-color="#2FC2B4" stop-opacity="0.22"/>
      <stop offset="1" stop-color="#2FC2B4" stop-opacity="0"/>
    </radialGradient>
    <linearGradient id="wood" x1="0" y1="0" x2="1" y2="1">
      <stop offset="0" stop-color="#C77B33"/><stop offset="0.5" stop-color="#8A4614"/><stop offset="1" stop-color="#5F3015"/>
    </linearGradient>
    <linearGradient id="firooze" x1="0" y1="0" x2="1" y2="1">
      <stop offset="0" stop-color="#5CD9CB"/><stop offset="1" stop-color="#17A497"/>
    </linearGradient>
  </defs>
  <rect width="800" height="1000" fill="url(#bg)"/>
  <rect width="800" height="1000" fill="url(#glow)"/>
  <g transform="translate(400 500)" stroke="#3a2a1c" stroke-width="1.2" opacity="0.5">
    <rect x="-150" y="-150" width="300" height="300" fill="none"/>
    <rect x="-150" y="-150" width="300" height="300" fill="none" transform="rotate(45)"/>
    <circle r="210" fill="none"/>
  </g>
  <g transform="translate(400 500)">
  <path d="M0 260 C90 250 120 170 110 100 C104 55 60 30 0 28 C-60 30 -104 55 -110 100 C-120 170 -90 250 0 260 Z" fill="url(#wood)" stroke="#C77B33" stroke-width="2"/>
  <ellipse cx="0" cy="140" rx="96" ry="104" fill="#C77B33" opacity="0.25"/>
  <circle cx="0" cy="120" r="24" fill="none" stroke="url(#firooze)" stroke-width="3"/>
  <circle cx="0" cy="120" r="12" fill="none" stroke="url(#firooze)" stroke-width="2" opacity="0.6"/>
  <rect x="-8" y="-330" width="16" height="360" rx="7" fill="url(#wood)" stroke="#C77B33" stroke-width="1.5"/>
  <g stroke="url(#firooze)" stroke-width="2" opacity="0.55">
    <line x1="-9" y1="-10" x2="9" y2="-10"/><line x1="-9" y1="-36" x2="9" y2="-36"/><line x1="-9" y1="-62" x2="9" y2="-62"/><line x1="-9" y1="-88" x2="9" y2="-88"/><line x1="-9" y1="-114" x2="9" y2="-114"/><line x1="-9" y1="-140" x2="9" y2="-140"/><line x1="-9" y1="-166" x2="9" y2="-166"/><line x1="-9" y1="-192" x2="9" y2="-192"/><line x1="-9" y1="-218" x2="9" y2="-218"/><line x1="-9" y1="-244" x2="9" y2="-244"/><line x1="-9" y1="-270" x2="9" y2="-270"/>
  </g>
  <path d="M-22 -345 L22 -345 L18 -410 L-18 -410 Z" fill="url(#wood)" stroke="#C77B33" stroke-width="1.5"/>
  <g fill="#F2E6CE">
    <circle cx="-30" cy="-360" r="7"/><circle cx="30" cy="-365" r="7"/>
    <circle cx="-30" cy="-390" r="7"/><circle cx="30" cy="-395" r="7"/>
  </g>
  <g stroke="#F2E6CE" stroke-width="1.4" opacity="0.85">
    <line x1="-6" y1="150" x2="-6" y2="-345"/><line x1="-2" y1="150" x2="-2" y2="-345"/>
    <line x1="2" y1="150" x2="2" y2="-345"/><line x1="6" y1="150" x2="6" y2="-345"/>
  </g>
  <rect x="-26" y="150" width="52" height="8" rx="3" fill="#F2E6CE"/>
</g>
  <g opacity="0.55" transform="translate(400 930)" text-anchor="middle" font-family="Vazirmatn, sans-serif">
    <circle cx="-70" cy="-5" r="3" fill="#E89B2E"/>
    <text x="0" y="0" fill="#8E9AA1" font-size="26" font-weight="700">دکتر ساز</text>
  </g>
</svg>