<svg xmlns="http://www.w3.org/2000/svg" viewBox="0 0 800 1000" fill="none">
  <defs>
    <linearGradient id="bg" x1="0" y1="0" x2="0" y2="1">
      <stop offset="0" stop-color="#171B1E"/><stop offset="1" stop-color="#0D0F11"/>
    </linearGradient>
    <radialGradient id="glow" cx="50%" cy="42%" r="55%">
      <stop offset="0" stop-color="#2FC2B4" stop-opacity="0.22"/>
      <stop offset="1" stop-color="#2FC2B4" stop-opacity="0"/>
    </radialGradient>
    <linearGradient id="wood" x1="0" y1="0" x2="1" y2="1">
      <stop offset="0" stop-color="#C77B33"/><stop offset="0.5" stop-color="#8A4614"/><stop offset="1" stop-color="#5F3015"/>
    </linearGradient>
    <linearGradient id="firooze" x1="0" y1="0" x2="1" y2="1">
      <stop offset="0" stop-color="#5CD9CB"/><stop offset="1" stop-color="#17A497"/>
    </linearGradient>
  </defs>
  <rect width="800" height="1000" fill="url(#bg)"/>
  <rect width="800" height="1000" fill="url(#glow)"/>
  <g transform="translate(400 500)" stroke="#3a2a1c" stroke-width="1.2" opacity="0.5">
    <rect x="-150" y="-150" width="300" height="300" fill="none"/>
    <rect x="-150" y="-150" width="300" height="300" fill="none" transform="rotate(45)"/>
    <circle r="210" fill="none"/>
  </g>
  <g transform="translate(400 500)">
  <line x1="-120" y1="-260" x2="-120" y2="220" stroke="#F2E6CE" stroke-width="3" opacity="0.85"/><circle cx="-120" cy="-260" r="14" fill="none" stroke="url(#firooze)" stroke-width="4"/><circle cx="-120" cy="220" r="9" fill="#E89B2E"/><line x1="-40" y1="-260" x2="-40" y2="220" stroke="#F2E6CE" stroke-width="3" opacity="0.85"/><circle cx="-40" cy="-260" r="14" fill="none" stroke="url(#firooze)" stroke-width="4"/><circle cx="-40" cy="220" r="9" fill="#E89B2E"/><line x1="40" y1="-260" x2="40" y2="220" stroke="#F2E6CE" stroke-width="3" opacity="0.85"/><circle cx="40" cy="-260" r="14" fill="none" stroke="url(#firooze)" stroke-width="4"/><circle cx="40" cy="220" r="9" fill="#E89B2E"/><line x1="120" y1="-260" x2="120" y2="220" stroke="#F2E6CE" stroke-width="3" opacity="0.85"/><circle cx="120" cy="-260" r="14" fill="none" stroke="url(#firooze)" stroke-width="4"/><circle cx="120" cy="220" r="9" fill="#E89B2E"/>
  <g transform="translate(0 300)"><path d="M-40 -20 L40 -20 L20 40 L-20 40 Z" fill="url(#wood)" stroke="#C77B33" stroke-width="2"/></g>
</g>
  <g opacity="0.55" transform="translate(400 930)" text-anchor="middle" font-family="Vazirmatn, sans-serif">
    <circle cx="-70" cy="-5" r="3" fill="#E89B2E"/>
    <text x="0" y="0" fill="#8E9AA1" font-size="26" font-weight="700">دکتر ساز</text>
  </g>
</svg>