<svg xmlns="http://www.w3.org/2000/svg" viewBox="0 0 800 1000" fill="none">
  <defs>
    <linearGradient id="bg" x1="0" y1="0" x2="0" y2="1">
      <stop offset="0" stop-color="#171B1E"/><stop offset="1" stop-color="#0D0F11"/>
    </linearGradient>
    <radialGradient id="glow" cx="50%" cy="42%" r="55%">
      <stop offset="0" stop-color="#2FC2B4" stop-opacity="0.22"/>
      <stop offset="1" stop-color="#2FC2B4" stop-opacity="0"/>
    </radialGradient>
    <linearGradient id="wood" x1="0" y1="0" x2="1" y2="1">
      <stop offset="0" stop-color="#C77B33"/><stop offset="0.5" stop-color="#8A4614"/><stop offset="1" stop-color="#5F3015"/>
    </linearGradient>
    <linearGradient id="firooze" x1="0" y1="0" x2="1" y2="1">
      <stop offset="0" stop-color="#5CD9CB"/><stop offset="1" stop-color="#17A497"/>
    </linearGradient>
  </defs>
  <rect width="800" height="1000" fill="url(#bg)"/>
  <rect width="800" height="1000" fill="url(#glow)"/>
  <g transform="translate(400 500)" stroke="#3a2a1c" stroke-width="1.2" opacity="0.5">
    <rect x="-150" y="-150" width="300" height="300" fill="none"/>
    <rect x="-150" y="-150" width="300" height="300" fill="none" transform="rotate(45)"/>
    <circle r="210" fill="none"/>
  </g>
  <g transform="translate(400 500)">
  <path d="M0 40 C70 40 96 90 96 140 C96 200 60 250 0 250 C-60 250 -96 200 -96 140 C-96 90 -70 40 0 40 Z" fill="url(#wood)" stroke="#C77B33" stroke-width="2"/>
  <path d="M-96 140 C-96 110 -70 96 0 96 C70 96 96 110 96 140" fill="none" stroke="#C77B33" stroke-width="2" opacity="0.6"/>
  <ellipse cx="0" cy="180" rx="86" ry="64" fill="#E7C9A0" opacity="0.9"/>
  <ellipse cx="0" cy="180" rx="86" ry="64" fill="none" stroke="#C77B33" stroke-width="1.5"/>
  <rect x="-9" y="-330" width="18" height="380" rx="8" fill="url(#wood)" stroke="#C77B33" stroke-width="1.5"/>
  <g stroke="url(#firooze)" stroke-width="2" opacity="0.5">
    <line x1="-10" y1="-10" x2="10" y2="-10"/><line x1="-10" y1="-36" x2="10" y2="-36"/><line x1="-10" y1="-62" x2="10" y2="-62"/><line x1="-10" y1="-88" x2="10" y2="-88"/><line x1="-10" y1="-114" x2="10" y2="-114"/><line x1="-10" y1="-140" x2="10" y2="-140"/><line x1="-10" y1="-166" x2="10" y2="-166"/><line x1="-10" y1="-192" x2="10" y2="-192"/><line x1="-10" y1="-218" x2="10" y2="-218"/><line x1="-10" y1="-244" x2="10" y2="-244"/><line x1="-10" y1="-270" x2="10" y2="-270"/><line x1="-10" y1="-296" x2="10" y2="-296"/>
  </g>
  <path d="M-24 -345 L24 -345 L20 -415 L-20 -415 Z" fill="url(#wood)" stroke="#C77B33" stroke-width="1.5"/>
  <g fill="#F2E6CE"><circle cx="-32" cy="-360" r="7"/><circle cx="32" cy="-366" r="7"/><circle cx="-32" cy="-392" r="7"/><circle cx="32" cy="-398" r="7"/><circle cx="-32" cy="-424" r="6"/><circle cx="32" cy="-428" r="6"/></g>
  <rect x="-30" y="176" width="60" height="8" rx="3" fill="#F2E6CE"/>
  <g stroke="#F2E6CE" stroke-width="1.3" opacity="0.8"><line x1="-10" y1="180" x2="-10" y2="-345"/><line x1="-6" y1="180" x2="-6" y2="-345"/><line x1="-2" y1="180" x2="-2" y2="-345"/><line x1="2" y1="180" x2="2" y2="-345"/><line x1="6" y1="180" x2="6" y2="-345"/><line x1="10" y1="180" x2="10" y2="-345"/></g>
</g>
  <g opacity="0.55" transform="translate(400 930)" text-anchor="middle" font-family="Vazirmatn, sans-serif">
    <circle cx="-70" cy="-5" r="3" fill="#E89B2E"/>
    <text x="0" y="0" fill="#8E9AA1" font-size="26" font-weight="700">دکتر ساز</text>
  </g>
</svg>