<svg xmlns="http://www.w3.org/2000/svg" viewBox="0 0 800 1000" fill="none">
  <defs>
    <linearGradient id="bg" x1="0" y1="0" x2="0" y2="1">
      <stop offset="0" stop-color="#171B1E"/><stop offset="1" stop-color="#0D0F11"/>
    </linearGradient>
    <radialGradient id="glow" cx="50%" cy="42%" r="55%">
      <stop offset="0" stop-color="#2FC2B4" stop-opacity="0.22"/>
      <stop offset="1" stop-color="#2FC2B4" stop-opacity="0"/>
    </radialGradient>
    <linearGradient id="wood" x1="0" y1="0" x2="1" y2="1">
      <stop offset="0" stop-color="#C77B33"/><stop offset="0.5" stop-color="#8A4614"/><stop offset="1" stop-color="#5F3015"/>
    </linearGradient>
    <linearGradient id="firooze" x1="0" y1="0" x2="1" y2="1">
      <stop offset="0" stop-color="#5CD9CB"/><stop offset="1" stop-color="#17A497"/>
    </linearGradient>
  </defs>
  <rect width="800" height="1000" fill="url(#bg)"/>
  <rect width="800" height="1000" fill="url(#glow)"/>
  <g transform="translate(400 500)" stroke="#3a2a1c" stroke-width="1.2" opacity="0.5">
    <rect x="-150" y="-150" width="300" height="300" fill="none"/>
    <rect x="-150" y="-150" width="300" height="300" fill="none" transform="rotate(45)"/>
    <circle r="210" fill="none"/>
  </g>
  <g transform="translate(400 480)">
  <rect x="-130" y="-160" width="260" height="300" rx="28" fill="url(#wood)" stroke="#C77B33" stroke-width="2"/>
  <rect x="-100" y="-130" width="200" height="150" rx="14" fill="#0D2A28"/>
  <path d="M0 -110 L0 0 M0 0 L-40 -30 M0 0 L40 -30" stroke="url(#firooze)" stroke-width="5" fill="none" stroke-linecap="round"/>
  <text x="0" y="-45" text-anchor="middle" fill="url(#firooze)" font-size="46" font-weight="800" font-family="sans-serif">A</text>
  <g fill="#E89B2E"><circle cx="-60" cy="70" r="14"/><circle cx="0" cy="70" r="14"/><circle cx="60" cy="70" r="14"/></g>
  <rect x="-30" y="140" width="60" height="30" rx="8" fill="#C77B33"/>
</g>
  <g opacity="0.55" transform="translate(400 930)" text-anchor="middle" font-family="Vazirmatn, sans-serif">
    <circle cx="-70" cy="-5" r="3" fill="#E89B2E"/>
    <text x="0" y="0" fill="#8E9AA1" font-size="26" font-weight="700">دکتر ساز</text>
  </g>
</svg>